FFmpeg version SVN-r25716, Copyright (c) 2000-2010 the FFmpeg developers  built on Nov 10 2010 12:23:18 with gcc 4.1.2 20080704 (Red Hat 4.1.2-48)  configuration: --enable-libmp3lame --enable-shared --disable-mmx --arch=x86_64  libavutil     50.33. 0 / 50.33. 0  libavcore      0.12. 1 /  0.12. 1  libavcodec    52.94. 4 / 52.94. 4  libavformat   52.84. 0 / 52.84. 0  libavdevice   52. 2. 2 / 52. 2. 2  libavfilter    1.59. 0 /  1.59. 0  libswscale     0.12. 0 /  0.12. 0Input #0, avi, from '/RAID10/data/converted_video_files/47654.avi':  Duration: 00:00:15.00, start: 0.000000, bitrate: 188590 kb/s    Stream #0.0: Video: msvideo1, rgb555le, 1024x1024, 20 tbr, 20 tbn, 20 tbc[buffer @ 0x18965050] w:1024 h:1024 pixfmt:rgb555le[ffsink @ 0x189652c0] auto-inserting filter 'auto-inserted scaler 0' between the filter 'src' and the filter 'out'[scale @ 0x18977250] w:1024 h:1024 fmt:rgb555le -> w:1024 h:1024 fmt:yuv420p flags:0x4Output #0, flv, to '/RAID10/data/converted_video_files/47654.flv':  Metadata:    encoder         : Lavf52.84.0    Stream #0.0: Video: flv, yuv420p, 1024x1024, q=2-31, 600 kb/s, 1k tbn, 24 tbcStream mapping:  Stream #0.0 -> #0.0Press [q] to stop encodingframe=    8 fps=  0 q=17.2 size=    1043kB time=0.37 bitrate=22855.3kbits/s    frame=   17 fps= 14 q=31.0 size=    1108kB time=0.83 bitrate=10898.0kbits/s    frame=   26 fps= 15 q=31.0 size=    1160kB time=1.29 bitrate=7359.2kbits/s    frame=   36 fps= 16 q=31.0 size=    1182kB time=1.79 bitrate=5405.0kbits/s    frame=   46 fps= 17 q=31.0 size=    1236kB time=2.29 bitrate=4416.0kbits/s    frame=   56 fps= 17 q=31.0 size=    1289kB time=2.79 bitrate=3783.9kbits/s    frame=   66 fps= 17 q=31.0 size=    1343kB time=3.29 bitrate=3341.5kbits/s    frame=   71 fps= 17 q=31.0 size=    1353kB time=3.54 bitrate=3130.7kbits/s    frame=   81 fps= 17 q=31.0 size=    1406kB time=4.04 bitrate=2850.5kbits/s    frame=   91 fps= 17 q=31.0 size=    1459kB time=4.54 bitrate=2631.7kbits/s    frame=  101 fps= 17 q=31.0 size=    1513kB time=5.04 bitrate=2458.6kbits/s    frame=  111 fps= 17 q=31.0 size=    1566kB time=5.54 bitrate=2314.6kbits/s    frame=  120 fps= 17 q=31.0 size=    1585kB time=6.00 bitrate=2164.2kbits/s    frame=  130 fps= 18 q=31.0 size=    1637kB time=6.50 bitrate=2063.1kbits/s    frame=  140 fps= 18 q=31.0 size=    1689kB time=7.00 bitrate=1976.6kbits/s    frame=  151 fps= 18 q=31.0 size=    1741kB time=7.54 bitrate=1891.4kbits/s    frame=  161 fps= 18 q=31.0 size=    1793kB time=8.04 bitrate=1826.7kbits/s    frame=  171 fps= 18 q=31.0 size=    1844kB time=8.54 bitrate=1768.1kbits/s    frame=  181 fps= 18 q=24.8 size=    1893kB time=9.04 bitrate=1714.9kbits/s    frame=  191 fps= 18 q=31.0 size=    1914kB time=9.54 bitrate=1643.0kbits/s    frame=  198 fps= 18 q=31.0 size=    1958kB time=9.88 bitrate=1623.9kbits/s    frame=  208 fps= 18 q=31.0 size=    2007kB time=10.38 bitrate=1585.0kbits/s    frame=  217 fps= 18 q=24.8 size=    2053kB time=10.83 bitrate=1552.6kbits/s    frame=  227 fps= 18 q=31.0 size=    2072kB time=11.33 bitrate=1497.5kbits/s    frame=  237 fps= 18 q=31.0 size=    2120kB time=11.83 bitrate=1467.4kbits/s    frame=  247 fps= 18 q=31.0 size=    2167kB time=12.33 bitrate=1439.0kbits/s    frame=  257 fps= 18 q=31.0 size=    2212kB time=12.83 bitrate=1411.8kbits/s    frame=  268 fps= 18 q=31.0 size=    2257kB time=13.38 bitrate=1382.3kbits/s    frame=  279 fps= 18 q=31.0 size=    2302kB time=13.96 bitrate=1350.9kbits/s    frame=  290 fps= 18 q=31.0 size=    2347kB time=14.50 bitrate=1325.9kbits/s    frame=  299 fps= 18 q=31.0 size=    2360kB time=14.96 bitrate=1292.3kbits/s    frame=  300 fps= 18 q=31.0 Lsize=    2361kB time=15.00 bitrate=1289.4kbits/s    video:2356kB audio:0kB global headers:0kB muxing overhead 0.207657%